<?xml version="1.0" encoding="UTF-8"?>
<!DOCTYPE svg PUBLIC "-//W3C//DTD SVG 1.1//EN" "http://www.w3.org/Graphics/SVG/1.1/DTD/svg11.dtd">
<!-- Creator: CorelDRAW X7 -->
<svg xmlns="http://www.w3.org/2000/svg" xml:space="preserve" width="800px" height="925px" version="1.1" style="shape-rendering:geometricPrecision; text-rendering:geometricPrecision; image-rendering:optimizeQuality; fill-rule:evenodd; clip-rule:evenodd"
viewBox="0 0 142 164"
 xmlns:xlink="http://www.w3.org/1999/xlink">
 <defs>
  <style type="text/css">
   <![CDATA[
    .fil1 {fill:#FEFEFE}
    .fil0 {fill:#2C318D}
   ]]>
  </style>
 </defs>
 <g id="Layer_x0020_1">
  <metadata id="CorelCorpID_0Corel-Layer"/>
  <polygon class="fil0" points="71,0 107,21 142,41 142,82 142,123 107,144 71,164 36,144 0,123 0,82 0,41 36,21 "/>
  <g id="_2413243904560">
   <path class="fil1" d="M56 78c1,-1 1,-2 2,-3l2 -1c0,-1 0,-1 0,-1 3,-1 5,-1 8,0 1,1 2,1 3,2 0,1 1,1 2,3 1,1 1,3 1,5l0 15 0 13 9 0 1 -27c-1,-3 0,-6 1,-8 1,-1 4,-3 6,-3 7,-2 10,3 11,9l0 29 10 0 0 -16c-1,-6 0,-12 -1,-17 -2,-10 -11,-16 -21,-15 -3,1 -5,1 -7,3 -1,0 -1,1 -2,1 -1,1 -2,2 -3,3 -2,-5 -9,-7 -15,-7 -5,1 -8,2 -11,5 -1,1 -2,1 -2,2l6 8 0 0z"/>
   <path class="fil1" d="M66 95c0,1 -1,2 -2,3 0,1 -1,1 -2,2 -4,3 -11,3 -15,0 -3,-2 -3,-3 -4,-4 -2,-3 -3,-4 -3,-9 0,-8 0,-23 0,-32 0,-3 0,-2 -1,-2l-9 0 0 7 0 29c1,11 10,20 19,22 5,0 7,1 11,0 3,-1 5,-2 6,-3l0 -13z"/>
  </g>
 </g>
</svg>
