<?xml version="1.0" encoding="UTF-8"?>
<!DOCTYPE svg PUBLIC "-//W3C//DTD SVG 1.1//EN" "http://www.w3.org/Graphics/SVG/1.1/DTD/svg11.dtd">
<!-- Creator: CorelDRAW X7 -->
<svg xmlns="http://www.w3.org/2000/svg" xml:space="preserve" width="1199px" height="291px" version="1.1" style="shape-rendering:geometricPrecision; text-rendering:geometricPrecision; image-rendering:optimizeQuality; fill-rule:evenodd; clip-rule:evenodd"
viewBox="0 0 509 124"
 xmlns:xlink="http://www.w3.org/1999/xlink">
 <defs>
  <style type="text/css">
   <![CDATA[
    .fil0 {fill:#E6E7E8}
    .fil1 {fill:#E6E7E8;fill-rule:nonzero}
   ]]>
  </style>
 </defs>
 <g id="Layer_x0020_1">
  <metadata id="CorelCorpID_0Corel-Layer"/>
  <g id="_2413342879216">
   <path class="fil0" d="M53 0l27 15 27 16 0 31 0 31 -27 15 -27 16 -26 -16 -27 -15 0 -31 0 -31 27 -16 26 -15zm0 3l26 15 25 14 0 30 0 29 -25 15 -26 14 -25 -14 -25 -15 0 -29 0 -30 25 -14 25 -15z"/>
   <g>
    <path class="fil0" d="M42 59c1,-1 1,-2 2,-3l1 -1c0,0 0,0 0,0 2,0 4,-1 6,0 1,1 1,1 2,1 1,1 1,1 2,2 0,2 1,3 0,5l0 11 0 10 8 0 0 -21c0,-2 0,-4 1,-6 1,-1 3,-2 5,-2 5,-1 7,2 8,6l0 23 7 0 0 -13c0,-4 1,-9 0,-13 -2,-7 -9,-11 -16,-10 -2,0 -4,0 -5,1 -1,1 -1,1 -2,2 -1,0 -1,1 -2,2 -2,-4 -7,-6 -11,-5 -4,0 -6,1 -9,3 -1,1 -1,1 -2,2l5 6 0 0z"/>
    <path class="fil0" d="M50 72c-1,1 -1,1 -2,2 0,0 -1,1 -1,1 -3,2 -8,2 -12,0 -2,-1 -2,-2 -3,-3 -1,-2 -2,-3 -2,-6 0,-6 0,-18 0,-24 0,-3 0,-2 0,-2l-7 0 0 5 0 22c0,9 7,15 14,16 3,1 5,1 8,0 3,0 4,-1 5,-2l0 -9z"/>
   </g>
  </g>
  <g id="_2413342881904">
   <path class="fil1" d="M152 74c0,5 2,10 5,13 3,4 6,5 11,5 5,0 8,-1 11,-4 3,-4 4,-8 4,-14 0,-6 -1,-10 -4,-14 -3,-3 -7,-5 -11,-5 -5,0 -9,2 -12,5 -2,3 -4,8 -4,14zm1 -63l0 44c1,-4 4,-6 7,-8 3,-2 7,-3 11,-3 8,0 14,3 19,8 4,6 6,13 6,22 0,9 -2,16 -6,22 -5,5 -11,8 -19,8 -4,0 -7,-1 -10,-3 -3,-1 -6,-3 -8,-7l0 8 -13 0 0 -91 13 0z"/>
   <path class="fil1" d="M205 22c0,-2 1,-4 3,-6 1,-1 3,-2 5,-2 3,0 5,1 6,2 2,2 2,4 2,6 0,2 0,4 -2,6 -1,1 -3,2 -6,2 -2,0 -4,-1 -5,-3 -2,-1 -3,-3 -3,-5zm2 80l0 -56 13 0 0 56 -13 0z"/>
   <polygon class="fil1" points="238,102 238,57 228,57 228,46 238,46 238,33 250,25 250,46 260,46 260,57 250,57 250,102 "/>
   <path class="fil1" d="M280 102l-12 0 0 -56 12 0 0 9c2,-4 5,-7 8,-9 4,-1 7,-2 12,-2 4,0 8,1 10,3 3,1 6,4 7,8 3,-4 6,-7 9,-9 4,-1 7,-2 12,-2 3,0 7,0 9,2 3,1 5,3 7,6 0,1 1,2 1,4 1,2 1,4 1,7l0 5 0 34 -13 0 0 -29c0,-8 -1,-12 -2,-15 -2,-2 -5,-3 -9,-3 -5,0 -8,1 -11,4 -2,4 -3,9 -3,17l0 26 -13 0 0 -29c0,-7 0,-12 -2,-14 -2,-3 -5,-4 -9,-4 -2,0 -4,0 -7,1 -2,1 -3,3 -5,5 0,1 -1,3 -1,5 0,2 -1,5 -1,10l0 26z"/>
   <path class="fil1" d="M422 102l-13 0 0 -8c-2,4 -5,6 -8,7 -3,2 -6,3 -10,3 -8,0 -14,-3 -19,-8 -4,-6 -7,-13 -7,-22 0,-9 3,-16 7,-22 5,-5 11,-8 18,-8 5,0 9,1 12,3 3,2 6,4 7,8l0 -9 13 0 0 56zm-13 -28c0,-6 -1,-11 -4,-14 -2,-3 -6,-5 -11,-5 -5,0 -8,2 -11,5 -3,4 -4,8 -4,14 0,6 1,10 4,14 2,3 6,4 11,4 5,0 8,-1 11,-5 3,-3 4,-8 4,-13z"/>
   <path class="fil1" d="M430 91l10 -5c1,2 2,5 5,6 2,1 4,2 8,2 3,0 5,0 6,-2 2,-1 3,-3 3,-5 0,-3 -3,-6 -9,-8 -2,-1 -3,-1 -4,-2 -6,-2 -10,-5 -13,-7 -2,-3 -3,-6 -3,-9 0,-5 2,-9 5,-13 4,-3 10,-4 16,-4 4,0 8,1 11,2 3,2 5,4 7,7l-9 6c-1,-2 -2,-3 -4,-4 -1,-1 -3,-2 -6,-2 -2,0 -4,1 -5,2 -2,1 -3,3 -3,5 0,3 4,5 10,8 2,0 4,1 5,2 5,2 9,4 11,6 2,3 3,6 3,10 0,6 -2,10 -6,13 -4,3 -9,5 -16,5 -6,0 -10,-1 -14,-3 -4,-2 -6,-5 -8,-10z"/>
   <polygon class="fil1" points="487,102 487,57 477,57 477,46 487,46 487,33 500,25 500,46 509,46 509,57 500,57 500,102 "/>
  </g>
 </g>
</svg>
