<?xml version="1.0" encoding="UTF-8"?>
<!DOCTYPE svg PUBLIC "-//W3C//DTD SVG 1.1//EN" "http://www.w3.org/Graphics/SVG/1.1/DTD/svg11.dtd">
<!-- Creator: CorelDRAW X7 -->
<svg xmlns="http://www.w3.org/2000/svg" xml:space="preserve" width="800px" height="925px" version="1.1" style="shape-rendering:geometricPrecision; text-rendering:geometricPrecision; image-rendering:optimizeQuality; fill-rule:evenodd; clip-rule:evenodd"
viewBox="0 0 714 824"
 xmlns:xlink="http://www.w3.org/1999/xlink">
 <defs>
  <style type="text/css">
   <![CDATA[
    .fil0 {fill:#FEFEFE}
    .fil1 {fill:#353534}
   ]]>
  </style>
 </defs>
 <g id="Layer_x0020_1">
  <metadata id="CorelCorpID_0Corel-Layer"/>
  <polygon class="fil0" points="357,0 535,103 714,206 714,412 714,618 535,721 357,824 178,721 0,618 0,412 0,206 178,103 "/>
  <g id="_2413313614160">
   <path class="fil1" d="M282 392c2,-6 6,-11 10,-16l8 -7c2,-1 2,-1 2,-2 14,-3 25,-6 39,1 6,3 9,4 13,8 4,4 8,7 11,13 5,9 6,20 5,30l0 71 0 68 49 0 0 -135c0,-16 1,-30 9,-40 6,-8 17,-16 31,-18 32,-6 50,17 52,45l1 148 48 0 1 -82c-1,-27 3,-61 -3,-86 -13,-49 -57,-78 -106,-72 -13,1 -24,5 -33,11 -6,4 -8,6 -13,10 -5,4 -7,8 -13,12 -11,-22 -45,-36 -75,-34 -24,2 -41,10 -58,24 -4,4 -6,8 -10,12l32 39 0 0z"/>
   <path class="fil1" d="M334 478c-5,6 -9,11 -11,15 -4,2 -7,5 -11,8 -22,14 -55,16 -77,1 -15,-11 -13,-13 -19,-19 -8,-15 -14,-21 -15,-44 -2,-41 -2,-116 -1,-161 0,-15 0,-11 -3,-13l-44 -1 -1 37 1 148c3,55 47,97 94,107 22,3 35,6 56,0 14,-3 22,-8 31,-13l0 -65z"/>
  </g>
 </g>
</svg>
