<?xml version="1.0" encoding="UTF-8" standalone="no"?>
<!-- Created with Inkscape (http://www.inkscape.org/) -->

<svg
   xmlns:dc="http://purl.org/dc/elements/1.1/"
   xmlns:cc="http://creativecommons.org/ns#"
   xmlns:rdf="http://www.w3.org/1999/02/22-rdf-syntax-ns#"
   xmlns:svg="http://www.w3.org/2000/svg"
   xmlns="http://www.w3.org/2000/svg"
   xmlns:sodipodi="http://sodipodi.sourceforge.net/DTD/sodipodi-0.dtd"
   xmlns:inkscape="http://www.inkscape.org/namespaces/inkscape"
   width="123.01874mm"
   height="113.90199mm"
   viewBox="0 0 123.01874 113.90199"
   version="1.1"
   id="svg8"
   inkscape:version="0.92.2 (5c3e80d, 2017-08-06)"
   sodipodi:docname="drawing.svg">
  <defs
     id="defs2" />
  <sodipodi:namedview
     id="base"
     pagecolor="#ffffff"
     bordercolor="#666666"
     borderopacity="1.0"
     inkscape:pageopacity="0.0"
     inkscape:pageshadow="2"
     inkscape:zoom="0.49497475"
     inkscape:cx="-282.8545"
     inkscape:cy="148.59299"
     inkscape:document-units="mm"
     inkscape:current-layer="layer1"
     showgrid="false"
     inkscape:window-width="1366"
     inkscape:window-height="705"
     inkscape:window-x="-8"
     inkscape:window-y="-8"
     inkscape:window-maximized="1" />
  <metadata
     id="metadata5">
    <rdf:RDF>
      <cc:Work
         rdf:about="">
        <dc:format>image/svg+xml</dc:format>
        <dc:type
           rdf:resource="http://purl.org/dc/dcmitype/StillImage" />
        <dc:title></dc:title>
      </cc:Work>
    </rdf:RDF>
  </metadata>
  <g
     inkscape:label="Layer 1"
     inkscape:groupmode="layer"
     id="layer1"
     transform="translate(-54.805848,-74.246578)">
    <g
       id="g978"
       transform="translate(-11.22532,12.828937)">
      <g
         style="fill:none;fill-rule:evenodd;stroke:none;stroke-width:1"
         transform="matrix(0.26458333,0,0,0.26458333,116.28949,68.704452)"
         id="humaaans/sitting-2">
        <g
           id="A-Human/Sitting"
           transform="matrix(-1,0,0,1,340,24)">
          <g
             id="Head/Front/Rad"
             transform="translate(82)">
            <g
               style="fill:#b28b67;stroke-width:1"
               id="Head"
               transform="translate(54,31)">
              <path
                 inkscape:connector-curvature="0"
                 d="M 8.2622739,34.490127 C 3.6543643,29.081376 0.53563479,22.452877 1.0567763,15.025454 2.5583302,-6.3750206 32.348531,-1.6671889 38.143341,9.1339329 43.938152,19.935055 43.249578,47.332996 35.760301,49.263458 32.773588,50.033323 26.411001,48.147461 19.935372,44.244306 L 24,73 H 0 Z"
                 id="path819" />
            </g>
            <path
               style="fill:#191847"
               inkscape:connector-curvature="0"
               d="m 95.406618,38.901701 c 0.775178,-0.768184 1.198019,-1.864637 1.563794,-2.905764 0.379857,-1.081528 0.748946,-2.174199 1.001141,-3.299907 0.50393,-2.249226 0.508716,-4.835876 -1.095852,-6.582399 -1.28684,-1.400542 -3.217697,-2.028722 -4.999723,-2.165244 -1.18725,-0.09105 -2.406622,0.07523 -3.544722,0.449368 -1.129171,0.371156 -2.102516,1.110881 -3.197171,1.57 -0.04179,-2.423858 -0.456989,-4.960058 -1.68667,-7.029677 -1.183293,-1.991307 -3.069878,-3.108756 -5.218415,-3.404387 -2.205234,-0.303393 -4.382857,0.212643 -6.357066,1.28024 -0.494266,0.267371 -0.983929,0.54748 -1.452515,0.864505 -0.392375,0.265481 -0.800305,0.585193 -1.260699,0.693156 -0.513227,0.120502 -0.767631,-0.175926 -1.101191,-0.550365 -0.391087,-0.43902 -0.831692,-0.825699 -1.297977,-1.168495 -2.061741,-1.515472 -4.766856,-2.138576 -7.155438,-1.230189 -1.100547,0.418521 -2.170719,1.12929 -2.917364,2.108724 -0.665556,0.873063 -1.140309,2.257983 -2.058888,2.866261 -0.389798,0.258217 -0.665096,-0.08388 -1.02001,-0.336727 -0.533107,-0.379913 -1.041547,-0.799131 -1.581097,-1.168695 -0.757874,-0.51922 -1.578429,-0.907591 -2.457154,-1.110881 -1.286379,-0.297621 -3.064079,-0.227868 -3.431879,1.456962 -0.138063,0.632856 -0.03221,1.309694 0.01243,1.947326 0.06121,0.87555 0.125085,1.750802 0.201112,2.625059 0.05771,0.663802 0.130699,1.304917 0.255968,1.956779 0.06682,0.347474 0.275942,0.995256 0.126926,1.343227 -0.186201,0.434939 -1.045597,0.187668 -1.412753,0.202793 -0.725199,0.02995 -1.453435,0.157119 -2.123961,0.46698 -0.519669,0.240206 -1.066031,0.593451 -1.285367,1.189092 -0.134842,0.365883 -0.09931,0.741716 -0.03562,1.118146 0.0764,0.451755 -0.01095,0.691365 -0.06802,1.1472 -0.973989,-0.479617 -4.34917,-1.545223 -4.773852,0.200305 -0.141376,0.581213 0.180587,1.23795 0.426247,1.728115 0.430849,0.859729 0.99571,1.645525 1.573182,2.394903 1.204554,1.563333 2.642619,2.911735 4.189845,4.064906 -1.812768,0.805896 -2.285956,3.182987 -0.716455,4.599251 0.692984,0.625294 1.624725,0.764502 2.498849,0.724501 0.319938,-0.01463 0.78116,-0.137617 1.032895,-0.08189 0.135486,0.02995 0.280544,0.14478 0.468218,0.157617 1.233639,0.08448 2.626235,-0.212744 3.832169,-0.486484 2.148813,-0.487776 4.183126,-1.505819 5.844392,-3.056316 0.426155,-0.397724 0.778216,-0.626687 1.351821,-0.620816 0.502642,0.0051 0.995803,0.14289 1.497984,0.155627 1.328719,0.03393 2.526738,-0.615642 3.760561,-1.047994 0.07557,1.66682 0.550227,3.5026 1.232075,5.00215 0.556025,1.222825 1.717135,1.400542 2.858088,1.507809 3.648546,0.343295 7.309977,-0.0398 10.963125,-0.03473 -3.536346,0.799329 -7.190598,1.128792 -10.695559,2.069419 -1.584319,0.425088 -0.374518,1.492884 0.302911,2.233106 1.115457,1.218945 1.944848,2.729242 2.52011,4.320337 1.72993,-2.254997 4.787658,-3.740816 7.496639,-3.048057 2.993206,0.765298 5.100876,4.813089 3.186862,7.723132 -1.111223,1.689308 -3.117923,2.341468 -4.787657,3.067262 1.302578,1.354273 1.617638,3.354436 2.401652,5.039266 0.386669,0.830872 0.92944,1.770305 1.794175,2.059867 0.319938,0.107167 0.695102,0.116322 0.947481,0.377126 0.312666,0.322896 0.387128,0.683903 0.786407,0.961424 1.593247,1.107697 4.081971,1.022321 5.494172,-0.423198 1.277083,-1.307305 0.944811,-3.376028 -0.121772,-4.701443 1.697807,-0.707685 4.790972,-1.617863 4.116211,-4.262923 3.67892,-0.244286 12.611227,-6.210845 7.673544,-10.570785 2.709803,-1.531492 5.199363,-5.274298 3.458753,-8.573607 -1.34032,-2.540579 -4.457409,-3.676237 -7.014889,-3.810968"
               id="hair"
               transform="matrix(-1,0,0,1,140,0)" />
          </g>
          <g
             id="Bottom/Sitting/Skinny-Jeans-1"
             transform="translate(0,187)">
            <g
               style="stroke-width:1"
               id="Objects/Seat/Cube"
               transform="translate(10,42)">
              <g
                 id="Seat"
                 transform="translate(55)">
                <polygon
                   style="fill:#c5cfd6"
                   id="Seat-Stuff"
                   points="115,124 0,124 27.622642,0 104.87719,0 " />
                <polygon
                   style="fill:#000000;fill-opacity:0.1"
                   id="polygon825"
                   points="65.603774,124 0,124 27.622642,0 51.382801,0 " />
              </g>
            </g>
            <path
               style="fill:#b28b67"
               inkscape:connector-curvature="0"
               d="m 257.95329,20.756126 c 8.2368,-4.945979 22.0562,1.408589 22.04671,8.482289 -0.0284,21.164496 -19.34332,120.912685 -20.35178,127.218295 -1.00845,6.30561 -11.81157,7.97116 -12.44067,0.0207 -1.00101,-12.65058 -2.86075,-56.44425 -1,-76.714718 0.76808,-8.367224 1.59526,-16.335888 2.4096,-23.445057 C 238.4819,74.620603 222.80723,100.826 201.59313,134.93378 l -11.51656,-5.26161 c 9.0436,-29.796071 16.45921,-50.831308 22.24683,-63.105706 9.90983,-21.016749 19.20191,-39.014792 23.11264,-45.354457 6.15159,-9.972297 16.85942,-6.492814 22.51725,-0.455881 z"
               id="Skin" />
            <path
               style="fill:#1f28cf"
               inkscape:connector-curvature="0"
               d="m 208.81922,123.34011 5.1177,-101.510175 c 3.68844,-17.5525354 34.90673,-9.4064 34.89389,0 -0.0291,21.35544 -12.85729,95.126825 -12.86597,101.489325 z"
               id="LegLower"
               transform="rotate(20,228.82502,67.41963)" />
            <g
               style="fill:#e4e4e4"
               id="Accessories/Shoe/Flat-Sneaker"
               transform="rotate(30,-87.860871,421.7147)">
              <path
                 inkscape:connector-curvature="0"
                 d="M 2.6781318,25.401924 C 1.5593773,28.388411 1,30.622993 1,32.105671 1,33.908957 1.3004142,36.5404 1.9012426,40 c 2.0919386,0 20.8925424,0 56.4018124,0 1.465683,-4.845493 0.619606,-7.461418 -2.538232,-7.847777 -3.157838,-0.386358 -5.781107,-0.735209 -7.869809,-1.046552 L 21.679993,19.418883 c -0.50443,-0.224877 -1.095649,0.0017 -1.320526,0.506174 -0.0038,0.0086 -0.0076,0.01731 -0.01117,0.02605 l -1.685082,4.08759 c -2.923332,1.363957 -5.298842,2.045936 -7.126532,2.045936 -1.484954,0 -3.5356885,-0.599726 -6.1522031,-1.799176 l 5.5e-6,-1.2e-5 c -1.0041007,-0.460295 -2.1912281,-0.01945 -2.6515233,0.984647 -0.019839,0.04328 -0.038127,0.08725 -0.054828,0.131834 z"
                 id="shoe" />
            </g>
            <g
               style="fill:#e4e4e4"
               id="g835"
               transform="translate(242,126)">
              <path
                 inkscape:connector-curvature="0"
                 d="M 2.6781318,25.401924 C 1.5593773,28.388411 1,30.622993 1,32.105671 1,33.908957 1.3004142,36.5404 1.9012426,40 c 2.0919386,0 20.8925424,0 56.4018124,0 1.465683,-4.845493 0.619606,-7.461418 -2.538232,-7.847777 -3.157838,-0.386358 -5.781107,-0.735209 -7.869809,-1.046552 L 21.679993,19.418883 c -0.50443,-0.224877 -1.095649,0.0017 -1.320526,0.506174 -0.0038,0.0086 -0.0076,0.01731 -0.01117,0.02605 l -1.685082,4.08759 c -2.923332,1.363957 -5.298842,2.045936 -7.126532,2.045936 -1.484954,0 -3.5356885,-0.599726 -6.1522031,-1.799176 l 5.5e-6,-1.2e-5 c -1.0041007,-0.460295 -2.1912281,-0.01945 -2.6515233,0.984647 -0.019839,0.04328 -0.038127,0.08725 -0.054828,0.131834 z"
                 id="path833" />
            </g>
            <path
               style="fill:#2b44ff"
               inkscape:connector-curvature="0"
               d="M 282.77037,36.433028 C 282.77037,63 270.1536,124.97029 270.14562,130.82011 L 243,130.84096 c 3.97328,-55.295479 5.38217,-83.241067 4.22668,-83.836762 -1.73323,-0.893542 -71.05084,6.920833 -91.84032,6.920833 C 125.40783,53.925031 113.00631,35.020397 112,0 h 59.38636 c 12.09159,1.2938669 75.16246,14.015257 98.58574,18.388413 10.0279,1.872223 12.79827,10.726098 12.79827,18.044615 z"
               id="Leg-and-Butt" />
          </g>
          <g
             id="Body/Pointing-Forward"
             transform="translate(22,82)">
            <path
               style="fill:#997659"
               inkscape:connector-curvature="0"
               d="m 158.63804,42.700233 34.70978,-19.010411 c 5.77202,-6.8543 11.45908,-12.177624 17.06116,-15.9699721 1.71181,-0.7146548 4.70534,-1.1472149 1.90582,3.8216571 -2.79952,4.968872 -5.52073,10.321284 -4.09448,11.852086 1.42624,1.530802 4.98272,-0.607661 6.6842,1.93578 1.13433,1.695627 -4.94162,4.37424 -18.22784,8.035839 l -25.22089,23.09243 z M 213,58.73984 228.24652,50.364207 c 2.13931,-8.140296 4.69658,-12.235954 7.67183,-12.286975 2.28561,-1.063471 -1.69476,9.222553 2.63803,8.330551 4.33279,-0.892003 14.90791,-8.757094 16.73005,-7.160183 2.69575,2.362526 0.29205,9.616852 -2.54007,13.225491 -5.29323,6.744541 -9.67579,9.05097 -20.50798,12.071254 -5.66363,1.57916 -11.78702,4.74445 -18.37016,9.495871 z"
               id="path839" />
            <path
               style="fill:#2026a2"
               inkscape:connector-curvature="0"
               d="m 142.85799,34.750302 c 12.02801,1.775014 28.4423,1.775014 47.24557,-6.364152 l 4.33989,16.026157 c -13.63764,9.829249 -31.73074,16.814209 -46.15576,14.112389 -11.36771,-2.129183 -15.01597,-16.865151 -5.4297,-23.774394 z"
               id="Sleeve"
               transform="rotate(-9,165.89828,43.74806)" />
            <path
               style="fill:#1f28cf"
               inkscape:connector-curvature="0"
               d="m 158.10427,62.761234 c 12.90679,3.218871 34.55068,-0.577067 64.93166,-11.387813 7.53574,15.590098 11.01933,26.704642 10.45075,33.343633 -26.06241,13.613995 -48.40014,19.683776 -66.80345,20.084476 0.58483,10.91984 -0.74431,21.31032 -5.2093,30.80444 -9.17925,19.51829 -62.928872,1.44217 -81.001142,5 C 69.155401,103.85132 91.037911,88.914381 91.055518,65.396616 91.074799,39.642157 111.75441,0 114.797,0 h 27.74675 c 1.53095,19.669019 9.23665,41.345983 15.56052,62.761234 z"
               id="Clothes" />
          </g>
        </g>
      </g>
      <g
         style="fill:none;fill-rule:evenodd;stroke:none;stroke-width:1"
         transform="matrix(0.26458333,0,0,0.26458333,53.53935,48.718062)"
         id="humaaans/standing-19">
        <g
           id="humaaan-3"
           transform="translate(28,2)">
          <g
             id="Head/Front/Short-Beard"
             transform="rotate(-15,169.14495,-161.35641)">
            <g
               style="fill:#b28b67;stroke-width:1"
               id="Head-8"
               transform="translate(58.49409,33.282773)">
              <path
                 inkscape:connector-curvature="0"
                 d="M 8.9498924,37.029905 C 3.9584948,31.222865 0.5802124,24.106258 1.1447254,16.131896 2.7712444,-6.8444633 35.040701,-1.789957 41.317779,9.806536 47.594856,21.403029 46.848976,50.818495 38.736413,52.891112 35.501134,53.717669 28.609027,51.692936 21.594471,47.502361 l 4.402902,30.873201 H 0 Z"
                 id="path880" />
            </g>
            <path
               style="fill:#191847"
               inkscape:connector-curvature="0"
               d="m 81.388357,51.952185 c 0.995141,13.739533 3.62755,20.609299 7.897229,20.609299 6.404893,0 11.838994,-4.03006 14.649304,-4.03006 2.04862,0 1.59123,2.540975 0.23329,4.424927 -1.12034,1.554321 -6.576297,3.052501 -6.576297,5.46222 0,2.40972 4.310667,0.545453 4.310667,1.97461 0,2.364001 0.75759,6.808746 -3.382012,6.808746 -4.189411,0 -16.201196,-1.513191 -18.259691,-7.675992 -1.328492,-3.977292 -2.187457,-12.218984 -2.576897,-24.725076 -0.254143,-0.02993 -0.512784,-0.04533 -0.775054,-0.04533 -3.589488,0 -6.499343,2.884104 -6.499343,6.441827 0,1.806093 0.749907,3.438586 1.957943,4.608283 -1.50386,2.103903 -3.189255,4.301711 -5.120539,6.569564 -7.255413,-4.314431 -12.639342,-16.944387 -5.545998,-29.077239 1.960623,-5.943695 6.399198,-9.118446 11.641262,-10.592585 4.246342,-1.760539 8.654447,-1.959041 12.375515,-0.903614 7.294324,0.620125 13.807806,2.824679 15.653784,4.133909 0,6.844682 -1.3381,8.875479 -12.767266,8.696472 -2.808331,1.470008 -4.967235,4.00136 -7.215897,7.320039 z"
               id="Hair" />
          </g>
          <g
             id="Bottom/Standing/Baggy-Pants"
             transform="translate(0,218.43588)">
            <polygon
               style="fill:#997659"
               id="Leg"
               points="198.31841,134.046 233.97733,247.37059 248.05827,247.37059 193.54361,5.4927305e-013 145.152,0 " />
            <path
               style="fill:#b28b67"
               inkscape:connector-curvature="0"
               d="m 134.4461,0 c -0.56615,47.104684 -8.82264,110.52349 -10.14175,113.45976 -0.87941,1.95751 -31.237916,26.85067 -91.075532,74.67948 l 9.698339,10.3383 C 113.53,157.47033 150.465,134.23206 153.73215,128.76271 158.63288,120.55868 174.58796,45.06416 187.39773,0 Z"
               id="path886" />
            <g
               style="fill:#e4e4e4"
               id="Accessories/Shoe/Flat-Sneaker-5"
               transform="rotate(50,-151.12184,137.15114)">
              <path
                 inkscape:connector-curvature="0"
                 d="m 2.9010163,27.515971 c -1.2118616,3.235034 -1.8177924,5.655587 -1.8177924,7.261659 0,1.953362 0.3254158,4.803804 0.9762475,8.551325 2.2660378,0 22.6313016,0 61.0957906,0 1.587663,-5.248753 0.671171,-8.082386 -2.749474,-8.500899 -3.420645,-0.418513 -6.262233,-0.796396 -8.524764,-1.13365 L 23.484286,21.034998 c -0.54641,-0.243592 -1.186833,0.0019 -1.430425,0.5483 -0.0042,0.0093 -0.0082,0.01875 -0.0121,0.02822 l -1.825321,4.427775 c -3.166623,1.477471 -5.739833,2.216206 -7.719629,2.216206 -1.608538,0 -3.8299428,-0.649637 -6.6642139,-1.94891 l 5.9e-6,-1.3e-5 c -1.0876658,-0.498603 -2.3735905,-0.02107 -2.8721933,1.066593 -0.021491,0.04688 -0.0413,0.09451 -0.059391,0.142806 z"
                 id="shoe-1" />
            </g>
            <g
               style="fill:#e4e4e4"
               id="g892"
               transform="translate(225.31057,214.72927)">
              <path
                 inkscape:connector-curvature="0"
                 d="m 2.9010163,27.515971 c -1.2118616,3.235034 -1.8177924,5.655587 -1.8177924,7.261659 0,1.953362 0.3254158,4.803804 0.9762475,8.551325 2.2660378,0 22.6313016,0 61.0957906,0 1.587663,-5.248753 0.671171,-8.082386 -2.749474,-8.500899 -3.420645,-0.418513 -6.262233,-0.796396 -8.524764,-1.13365 L 23.484286,21.034998 c -0.54641,-0.243592 -1.186833,0.0019 -1.430425,0.5483 -0.0042,0.0093 -0.0082,0.01875 -0.0121,0.02822 l -1.825321,4.427775 c -3.166623,1.477471 -5.739833,2.216206 -7.719629,2.216206 -1.608538,0 -3.8299428,-0.649637 -6.6642139,-1.94891 l 5.9e-6,-1.3e-5 c -1.0876658,-0.498603 -2.3735905,-0.02107 -2.8721933,1.066593 -0.021491,0.04688 -0.0413,0.09451 -0.059391,0.142806 z"
                 id="path890" />
            </g>
            <polygon
               style="fill:#69a1ac"
               id="Pant"
               points="198.22997,2.8421709e-014 138.26711,2.8421709e-014 180.89839,235.69816 247.84646,228.46043 " />
            <path
               style="fill:#89c5cc"
               inkscape:connector-curvature="0"
               d="m 47.076865,171.46022 43.913942,51.77833 C 137.24441,172.91637 164.21039,140.08113 171.88873,124.73285 179.56707,109.38457 186.46951,67.806951 192.59604,0 h -67.50735 c -3.34663,59.653598 -5.60249,90.868383 -6.76758,93.644357 -1.16509,2.775974 -24.91317,28.714593 -71.244245,77.815863 z"
               id="path895" />
          </g>
          <g
             id="Body/Hoodie"
             transform="rotate(-10,755.65058,24.107546)">
            <path
               style="fill:#b28b67"
               inkscape:connector-curvature="0"
               d="m 206.65876,99.393636 34.55297,25.248014 c 9.37147,2.5163 17.20104,5.64701 23.48869,9.39212 1.48526,1.34672 3.28033,4.07405 -2.87938,3.6027 -6.1597,-0.47135 -12.66009,-0.69148 -13.51001,1.39915 -0.84992,2.09063 2.8776,4.5908 1.15954,7.4116 -1.14537,1.88054 -6.55657,-2.83484 -16.23359,-14.14614 l -34.2165,-14.11882 z m -132.665981,0.871374 22.636554,0.0886 c -13.977027,44.89798 -21.522545,68.72057 -22.636554,71.46776 -2.506519,6.18119 2.797612,15.59503 5.065869,20.65395 -7.387637,3.28947 -6.600476,-8.89276 -15.919782,-4.57845 -8.50623,3.93791 -14.976898,11.07313 -24.804618,5.039 -1.20826,-0.74186 -2.532317,-3.5351 0.666771,-5.71787 7.970095,-5.43808 19.455485,-14.95569 21.007342,-18.08849 2.116234,-4.27213 6.777707,-27.22696 13.984418,-68.86448 z"
               id="Skin-4" />
            <path
               style="fill:#e87613"
               inkscape:connector-curvature="0"
               d="m 132.97336,10.34818 9.19179,-2.4089735 c 37.2249,26.7314595 56.44708,82.6607065 101.5339,109.2350135 l -9.112,13.4922 C 160.17296,128.03695 135.82421,59.895643 132.97336,10.34818 Z"
               id="Coat-Back"
               transform="rotate(5,188.33621,69.302813)" />
            <path
               style="fill:#dde3e9"
               inkscape:connector-curvature="0"
               d="m 97.49015,122.87921 c 37.55727,0 65.18362,0 82.87903,0 3.78715,0 3.07353,-5.44157 2.52608,-8.18741 C 176.57696,83.001421 151.91273,48.84073 151.91273,3.730279 L 128.00652,0 C 108.23301,31.645069 101.39498,70.606556 97.49015,122.87921 Z"
               id="Shirt" />
            <path
               style="fill:#ff9b21"
               inkscape:connector-curvature="0"
               d="M 98.156161,31.105642 C 94.684083,30.112508 91.934557,27.79621 89.907583,24.156749 81.169819,8.4679683 84.325434,-0.16986734 93.663333,-3.0091727 103.00123,-5.848478 111.32868,0 126.20645,0 c 0.80923,0 1.55039,0.05048022 2.22348,0.15144065 l 7.48389,0.42494902 C 157.38592,72.989383 163.30779,121.3022 153.67945,145.51485 H 88.447195 c -3.864941,8.96789 -7.563364,16.51311 -11.095268,22.63565 H 59.577314 C 57.904473,114.32842 70.764089,68.646805 98.156161,31.105642 Z"
               id="Coat-Front" />
            <path
               style="fill:#000000;fill-opacity:0.1"
               inkscape:connector-curvature="0"
               d="m 102.65196,108.32518 c 2.05154,17.08063 5.38598,29.47718 10.00332,37.18967 H 88.447195 c 4.508347,-10.46079 9.243268,-22.85735 14.204765,-37.18968 z"
               id="Shade" />
          </g>
        </g>
      </g>
    </g>
  </g>
</svg>
