<svg height="512" viewBox="0 0 64 64" width="512" xmlns="http://www.w3.org/2000/svg"><g id="Smartphone"><path d="m18 7h22v24h-22z" fill="#ffeb99"/><path d="m22 31h18v-18a17.99 17.99 0 0 1 -18 18z" fill="#ffe477"/><path d="m18 31h22a0 0 0 0 1 0 0v4a2 2 0 0 1 -2 2h-18a2 2 0 0 1 -2-2v-4a0 0 0 0 1 0 0z" fill="#006df0"/><path d="m20.466 42.417-.466.583.466-.583a6.311 6.311 0 0 0 1.212-5.417 6.289 6.289 0 0 0 -1.678-3l4.979-4.979a2.09 2.09 0 0 0 .188-2.817 2.015 2.015 0 0 0 -2.927-.1l-4.24 4.236-2.019 2.019 2.019-2.019v-9.17l-4.24 4.24a6.008 6.008 0 0 0 -1.76 4.249v14.869a2 2 0 0 0 .211.894l.57 1.141a2 2 0 0 1 .211.926l-.055 3.511h14.063v-4l.57-.86a9.979 9.979 0 0 0 1.01-9.14h-6.9a6.311 6.311 0 0 1 -1.214 5.417z" fill="#ffbcab"/><path d="m40 5a2.006 2.006 0 0 0 -2-2h-18a2.006 2.006 0 0 0 -2 2v2h22z" fill="#006df0"/><path d="m27 51h-14.063-2.937v10h20v-10z" fill="#006df0"/><path d="m40 9.838a10 10 0 0 0 4 19.162v-20a9.957 9.957 0 0 0 -4 .838z" fill="#ff9811"/><path d="m44 9v20a10 10 0 0 0 0-20z" fill="#ffa733"/><path d="m10 51h20v3h-20z" fill="#005ece"/><g fill="#231f20"><path d="m26 55h-1a1 1 0 0 0 0 2h1a1 1 0 0 0 0-2z"/><path d="m28 35h2a1 1 0 0 0 0-2h-2a1 1 0 0 0 0 2z"/><path d="m44 8a10.966 10.966 0 0 0 -3 .426v-3.426a3 3 0 0 0 -3-3h-18a3 3 0 0 0 -3 3v15.756l-3.947 3.944a6.965 6.965 0 0 0 -2.053 4.959v14.869a3.022 3.022 0 0 0 .316 1.342l.571 1.139a1.011 1.011 0 0 1 .105.464l-.04 2.527h-1.952a1 1 0 0 0 -1 1v10a1 1 0 0 0 1 1h20a1 1 0 0 0 1-1v-10a1 1 0 0 0 -1-1h-2v-2.7l.4-.605a10.974 10.974 0 0 0 1.534-8.695h8.066a3 3 0 0 0 3-3v-5.426a11 11 0 1 0 3-21.574zm-24-4h18a1 1 0 0 1 1 1v1h-20v-1a1 1 0 0 1 1-1zm9 56h-18v-8h18zm-2.264-14.412-.569.86a1 1 0 0 0 -.167.552v3h-12.047l.039-2.495a3.015 3.015 0 0 0 -.316-1.39l-.571-1.139a1.027 1.027 0 0 1 -.105-.448v-14.869a4.976 4.976 0 0 1 1.467-3.542l2.533-2.533v6.342l-1.727 1.726a1 1 0 0 0 1.415 1.414l6.26-6.259a1.013 1.013 0 0 1 1.464.053 1.092 1.092 0 0 1 -.141 1.454l-4.978 4.979a1 1 0 0 0 0 1.414 5.316 5.316 0 0 1 .393 7.085l-.467.583a1 1 0 0 0 1.562 1.25l.466-.583a7.283 7.283 0 0 0 1.568-5.042h5.036a8.967 8.967 0 0 1 -1.115 7.588zm12.264-15.588h-12a1 1 0 0 0 0 2h12v3a1 1 0 0 1 -1 1h-15.59a7.25 7.25 0 0 0 -1.044-1.952l4.32-4.319a3 3 0 1 0 -4.153-4.336l-2.533 2.533v-19.926h20v1.214a10.98 10.98 0 0 0 0 19.572zm5-2a9 9 0 1 1 9-9 9.011 9.011 0 0 1 -9 9z"/><path d="m44 16c1.221 0 2 .592 2 1a1 1 0 0 0 2 0c0-1.421-1.259-2.571-3-2.9v-1.1a1 1 0 0 0 -2 0v1.1c-1.741.327-3 1.477-3 2.9 0 1.682 1.757 3 4 3 1.221 0 2 .592 2 1s-.779 1-2 1-2-.592-2-1a1 1 0 0 0 -2 0c0 1.421 1.259 2.571 3 2.9v1.1a1 1 0 0 0 2 0v-1.1c1.741-.327 3-1.477 3-2.9 0-1.682-1.757-3-4-3-1.221 0-2-.592-2-1s.779-1 2-1z"/><path d="m25 10h-3a1 1 0 0 0 -1 1v3a1 1 0 0 0 2 0v-2h2a1 1 0 0 0 0-2z"/></g></g></svg>